<?xml version="1.0" encoding="UTF-8"?>
<svg xmlns="http://www.w3.org/2000/svg" id="c-logo" viewBox="0 0 512 576">
  <defs>
    <style>.cls-1{fill:#0076c8;}.cls-2{fill:#005189;}.cls-3{fill:#fff;}.cls-4{fill:#00497c;}</style>
  </defs>
  <path class="cls-1" d="M491.58,155.36l-.06,0a32.12,32.12,0,0,0-11.83-11.57l-208-117a32.05,32.05,0,0,0-31.38,0l-208,117A32,32,0,0,0,16,171.72V404.28a32,32,0,0,0,4.42,16.23l.06,0a32.12,32.12,0,0,0,11.83,11.57l208,117a32.05,32.05,0,0,0,31.38,0l208-117A32,32,0,0,0,496,404.15V171.58A32,32,0,0,0,491.58,155.36Z"></path>
  <path class="cls-2" d="M491.58,155.49,256,288,20.42,420.51a32,32,0,0,0,11.89,11.67l208,117a32.05,32.05,0,0,0,31.38,0l208-117A32,32,0,0,0,496,404.28V171.72A32,32,0,0,0,491.58,155.49Z"></path>
  <path class="cls-3" d="M256,112A176,176,0,1,0,432,288,176,176,0,0,0,256,112Zm0,264a88,88,0,1,1,88-88A88,88,0,0,1,256,376Z"></path>
  <path class="cls-4" d="M256,288,491.58,420.51A32,32,0,0,0,496,404.28V171.72a32,32,0,0,0-4.42-16.23Z"></path>
  <polygon class="cls-3" points="404.12 276.67 381.47 276.67 381.47 254.01 358.81 254.01 358.81 276.67 336.15 276.67 336.15 299.33 358.81 299.33 358.81 321.99 381.47 321.99 381.47 299.33 404.12 299.33 404.12 276.67"></polygon>
  <polygon class="cls-3" points="489.85 276.67 467.19 276.67 467.19 254.01 444.53 254.01 444.53 276.67 421.88 276.67 421.88 299.33 444.53 299.33 444.53 321.99 467.19 321.99 467.19 299.33 489.85 299.33 489.85 276.67"></polygon>
</svg>
