<?xml version="1.0" encoding="UTF-8"?>
<svg xmlns="http://www.w3.org/2000/svg" id="Layer_1" data-name="Layer 1" viewBox="0 0 320 320">
  <defs>
    <style>.cls-1{fill:#ffe8bf;stroke:#f9cb98;}.cls-1,.cls-13,.cls-6,.cls-7{stroke-miterlimit:10;}.cls-1,.cls-13,.cls-7,.cls-9{stroke-width:0.5px;}.cls-10,.cls-2{font-size:18px;fill:#444;font-family:SourceSansPro-Regular, Source Sans Pro;}.cls-12,.cls-2{letter-spacing:-0.01em;}.cls-3{letter-spacing:-0.03em;}.cls-4,.cls-5{font-size:14px;font-family:OpenSans-Regular, Open Sans;}.cls-4{fill:#ed1c24;}.cls-5{fill:#00a651;}.cls-6{fill:#fff;stroke:#444;stroke-width:0.25px;}.cls-13,.cls-7{fill:none;stroke:#656666;}.cls-8{fill:#656666;}.cls-9{fill:#e0f2fd;stroke:#b7e3f9;stroke-linejoin:round;}.cls-10{letter-spacing:-0.01em;}.cls-11{letter-spacing:-0.02em;}.cls-13{stroke-linecap:square;}</style>
  </defs>
  <rect class="cls-1" x="190.79" y="191.77" width="107.54" height="44.33"></rect>
  <text class="cls-2" transform="translate(210 218.77)">Blo<tspan class="cls-3" x="24.39" y="0">c</tspan><tspan x="32.04" y="0">o else</tspan></text>
  <rect class="cls-1" x="24.91" y="191.77" width="107.54" height="44.33"></rect>
  <text class="cls-2" transform="translate(50.79 218.77)">Blo<tspan class="cls-3" x="24.39" y="0">c</tspan><tspan x="32.04" y="0">o if</tspan></text>
  <text class="cls-4" transform="translate(166.85 97.11)">Falso</text>
  <text class="cls-5" transform="translate(84.39 152.44)">Verdadeiro</text>
  <circle class="cls-6" cx="78.68" cy="26.5" r="14.43"></circle>
  <line class="cls-7" x1="78.68" y1="40.93" x2="78.68" y2="68.62"></line>
  <polygon class="cls-8" points="76.19 67.89 78.69 72.21 81.18 67.89 76.19 67.89"></polygon>
  <polygon class="cls-9" points="135.7 101.22 78.69 129.87 21.67 101.22 78.69 72.56 135.7 101.22"></polygon>
  <text class="cls-10" transform="translate(43.83 106.06)">Condi<tspan class="cls-11" x="43.4" y="0">ç</tspan><tspan class="cls-12" x="51.25" y="0">ão</tspan></text>
  <line class="cls-7" x1="135.7" y1="101.21" x2="244.56" y2="101.21"></line>
  <line class="cls-13" x1="244.56" y1="101.21" x2="244.56" y2="188.18"></line>
  <polygon class="cls-8" points="242.07 187.45 244.56 191.77 247.06 187.45 242.07 187.45"></polygon>
  <line class="cls-13" x1="78.69" y1="130.22" x2="78.69" y2="188.18"></line>
  <polygon class="cls-8" points="76.19 187.45 78.69 191.77 81.18 187.45 76.19 187.45"></polygon>
  <line class="cls-7" x1="244.31" y1="235.37" x2="244.31" y2="257.58"></line>
  <line class="cls-7" x1="244.56" y1="257.42" x2="82.27" y2="257.42"></line>
  <polygon class="cls-8" points="83 254.93 78.69 257.42 83 259.91 83 254.93"></polygon>
  <circle class="cls-6" cx="78.68" cy="293.5" r="14.43"></circle>
  <line class="cls-7" x1="78.68" y1="236.1" x2="78.68" y2="275.48"></line>
  <polygon class="cls-8" points="76.19 274.75 78.69 279.07 81.18 274.75 76.19 274.75"></polygon>
</svg>
