<?xml version="1.0" encoding="UTF-8"?>
<svg xmlns="http://www.w3.org/2000/svg" viewBox="0 0 750 500">
  <defs>
    <style>.cls-1{fill:#e9f5ff;}.cls-2,.cls-3{font-size:22.6px;fill:#58595b;font-family:OpenSans-Light, Open Sans;font-weight:300;}.cls-2{letter-spacing:0.05em;}.cls-3{letter-spacing:0.05em;}.cls-4{fill:#80ccff;}.cls-5{font-size:26.36px;fill:#414042;font-family:OpenSans-SemiBold, Open Sans;font-weight:600;letter-spacing:0.05em;}</style>
  </defs>
  <g id="Numbers">
    <rect class="cls-1" x="34.69" y="39.46" width="680.62" height="421.07" rx="26.62"></rect>
    <text class="cls-2" transform="translate(246.74 218.7)">[0][0]</text>
    <text class="cls-2" transform="translate(412.75 218.7)">[0][1]</text>
    <text class="cls-2" transform="translate(579.88 218.7)">[0][2]</text>
    <text class="cls-2" transform="translate(246.74 330.28)">[1][0]</text>
    <text class="cls-2" transform="translate(412.75 330.28)">[1][1]</text>
    <text class="cls-2" transform="translate(579.88 330.28)">[1][2]</text>
    <text class="cls-2" transform="translate(246.74 441.73)">[2][0]</text>
    <text class="cls-2" transform="translate(412.75 441.73)">[2][1]</text>
    <text class="cls-2" transform="translate(579.88 441.73)">[2][2]</text>
    <text class="cls-2" transform="translate(87.41 396.13)">Linha 2</text>
    <text class="cls-3" transform="translate(87.88 284.69)">Linha 1</text>
    <text class="cls-2" transform="translate(87.41 173.24)">Linha 0</text>
    <text class="cls-2" transform="translate(228.03 94.9)">Coluna 0</text>
    <rect class="cls-4" x="227.9" y="362.31" width="99.09" height="54.41" rx="13.38"></rect>
    <text class="cls-5" transform="translate(269.26 397.08)">2</text>
    <rect class="cls-4" x="227.9" y="250.86" width="99.09" height="54.41" rx="13.38"></rect>
    <text class="cls-5" transform="translate(269.26 285.64)">3</text>
    <rect class="cls-4" x="227.9" y="139.42" width="99.09" height="54.41" rx="13.38"></rect>
    <text class="cls-5" transform="translate(269.26 174.2)">8</text>
    <text class="cls-2" transform="translate(394.6 94.9)">Coluna 1</text>
    <rect class="cls-4" x="393.9" y="362.31" width="99.09" height="54.41" rx="13.38"></rect>
    <text class="cls-5" transform="translate(435.26 397.08)">4</text>
    <rect class="cls-4" x="393.9" y="250.86" width="99.09" height="54.41" rx="13.38"></rect>
    <text class="cls-5" transform="translate(435.26 285.64)">5</text>
    <rect class="cls-4" x="393.9" y="139.42" width="99.09" height="54.41" rx="13.38"></rect>
    <text class="cls-5" transform="translate(435.26 174.2)">1</text>
    <text class="cls-2" transform="translate(561.17 94.9)">Coluna 2</text>
    <rect class="cls-4" x="561.04" y="362.31" width="99.09" height="54.41" rx="13.38"></rect>
    <text class="cls-5" transform="translate(602.39 397.08)">9</text>
    <rect class="cls-4" x="561.04" y="250.86" width="99.09" height="54.41" rx="13.38"></rect>
    <text class="cls-5" transform="translate(602.39 285.64)">6</text>
    <rect class="cls-4" x="561.04" y="139.42" width="99.09" height="54.41" rx="13.38"></rect>
    <text class="cls-5" transform="translate(602.39 174.2)">7</text>
  </g>
</svg>
