<?xml version="1.0" encoding="UTF-8"?>
<svg xmlns="http://www.w3.org/2000/svg" id="Layer_1" data-name="Layer 1" viewBox="0 0 320 256">
  <defs>
    <style>.cls-1{fill:#ffe8bf;stroke:#f9cb98;}.cls-1,.cls-11,.cls-6,.cls-9{stroke-miterlimit:10;}.cls-1,.cls-11,.cls-9{stroke-width:0.5px;}.cls-12,.cls-2,.cls-7,.cls-8{font-size:18px;}.cls-12,.cls-2{fill:#444;font-family:SourceSansPro-Regular, Source Sans Pro;}.cls-13,.cls-2{letter-spacing:-0.01em;}.cls-3{letter-spacing:-0.03em;}.cls-4{letter-spacing:-0.02em;}.cls-12,.cls-5{letter-spacing:-0.01em;}.cls-6{fill:#fff;stroke:#444;stroke-width:0.25px;}.cls-7{fill:#00a651;}.cls-7,.cls-8{font-family:OpenSans-Regular, Open Sans;}.cls-8{fill:#ed1c24;}.cls-9{fill:none;stroke:#656666;}.cls-10{fill:#656666;}.cls-11{fill:#e0f2fd;stroke:#b7e3f9;}</style>
  </defs>
  <rect class="cls-1" x="183.03" y="99.79" width="107.54" height="44.33"></rect>
  <text class="cls-2" transform="translate(202.24 126.79)">In<tspan class="cls-3" x="14.22" y="0">s</tspan><tspan x="21.22" y="0">tru</tspan><tspan class="cls-4" x="42.8" y="0">ç</tspan><tspan class="cls-5" x="50.65" y="0">ão</tspan></text>
  <circle class="cls-6" cx="86.44" cy="47.59" r="14.43"></circle>
  <circle class="cls-6" cx="86.44" cy="208.01" r="14.43"></circle>
  <text class="cls-7" transform="translate(154.8 118.52)">V</text>
  <text class="cls-8" transform="translate(89.27 166.51)">F</text>
  <line class="cls-9" x1="86.44" y1="62.02" x2="86.44" y2="89.71"></line>
  <polygon class="cls-10" points="83.95 88.98 86.44 93.29 88.94 88.98 83.95 88.98"></polygon>
  <polygon class="cls-11" points="143.46 121.95 86.44 150.61 29.43 121.95 86.44 93.29 143.46 121.95"></polygon>
  <text class="cls-12" transform="translate(51.59 126.79)">Condi<tspan class="cls-4" x="43.4" y="0">ç</tspan><tspan class="cls-13" x="51.25" y="0">ão</tspan></text>
  <line class="cls-9" x1="143.46" y1="121.95" x2="179.44" y2="121.95"></line>
  <polygon class="cls-10" points="178.71 124.45 183.03 121.95 178.71 119.46 178.71 124.45"></polygon>
  <line class="cls-9" x1="236.8" y1="144.41" x2="236.8" y2="175.75"></line>
  <line class="cls-9" x1="237.03" y1="175.52" x2="90.03" y2="175.52"></line>
  <polygon class="cls-10" points="90.76 173.03 86.44 175.52 90.76 178.01 90.76 173.03"></polygon>
  <line class="cls-9" x1="86.44" y1="150.61" x2="86.44" y2="190"></line>
  <polygon class="cls-10" points="83.95 189.27 86.44 193.58 88.94 189.27 83.95 189.27"></polygon>
</svg>
