<?xml version="1.0" encoding="UTF-8"?>
<svg xmlns="http://www.w3.org/2000/svg" id="Layer_1" data-name="Layer 1" viewBox="0 0 160 384">
  <defs>
    <style>.cls-1{fill:#ffe8bf;stroke:#f9cb98;}.cls-1,.cls-6,.cls-7{stroke-miterlimit:10;}.cls-1,.cls-7{stroke-width:0.5px;}.cls-2{font-size:18px;fill:#444;font-family:SourceSansPro-Regular, Source Sans Pro;letter-spacing:-0.01em;}.cls-3{letter-spacing:-0.03em;}.cls-4{letter-spacing:-0.02em;}.cls-5{letter-spacing:-0.01em;}.cls-6{fill:#fff;stroke:#444;stroke-width:0.25px;}.cls-7{fill:none;stroke:#656666;}.cls-8{fill:#656666;}</style>
  </defs>
  <rect class="cls-1" x="26.23" y="147.01" width="107.54" height="44.33"></rect>
  <text class="cls-2" transform="translate(45.44 174.01)">In<tspan class="cls-3" x="14.22" y="0">s</tspan><tspan x="21.22" y="0">tru</tspan><tspan class="cls-4" x="42.8" y="0">ç</tspan><tspan class="cls-5" x="50.65" y="0">ão</tspan></text>
  <rect class="cls-1" x="26.23" y="147.01" width="107.54" height="44.33"></rect>
  <text class="cls-2" transform="translate(45.44 174.01)">In<tspan class="cls-3" x="14.22" y="0">s</tspan><tspan x="21.22" y="0">tru</tspan><tspan class="cls-4" x="42.8" y="0">ç</tspan><tspan class="cls-5" x="50.65" y="0">ão</tspan></text>
  <rect class="cls-1" x="26.23" y="256.26" width="107.54" height="44.33"></rect>
  <text class="cls-2" transform="translate(45.44 283.27)">In<tspan class="cls-3" x="14.22" y="0">s</tspan><tspan x="21.22" y="0">tru</tspan><tspan class="cls-4" x="42.8" y="0">ç</tspan><tspan class="cls-5" x="50.65" y="0">ão</tspan></text>
  <rect class="cls-1" x="26.23" y="83.06" width="107.54" height="44.33"></rect>
  <text class="cls-2" transform="translate(45.44 110.07)">In<tspan class="cls-3" x="14.22" y="0">s</tspan><tspan x="21.22" y="0">tru</tspan><tspan class="cls-4" x="42.8" y="0">ç</tspan><tspan class="cls-5" x="50.65" y="0">ão</tspan></text>
  <circle class="cls-6" cx="80" cy="49.37" r="14.43"></circle>
  <circle class="cls-6" cx="80" cy="334.63" r="14.43"></circle>
  <line class="cls-7" x1="80" y1="63.79" x2="80" y2="79.48"></line>
  <polygon class="cls-8" points="77.51 78.75 80 83.06 82.49 78.75 77.51 78.75"></polygon>
  <line class="cls-7" x1="80" y1="127.39" x2="80" y2="143.42"></line>
  <polygon class="cls-8" points="77.51 142.69 80 147.01 82.49 142.69 77.51 142.69"></polygon>
  <line class="cls-7" x1="80" y1="191.34" x2="80" y2="207.36"></line>
  <polygon class="cls-8" points="77.51 206.63 80 210.95 82.49 206.63 77.51 206.63"></polygon>
  <line class="cls-7" x1="80" y1="236.65" x2="80" y2="252.67"></line>
  <polygon class="cls-8" points="77.51 251.94 80 256.26 82.49 251.94 77.51 251.94"></polygon>
  <line class="cls-7" x1="80" y1="300.59" x2="80" y2="316.62"></line>
  <polygon class="cls-8" points="77.51 315.89 80 320.21 82.49 315.89 77.51 315.89"></polygon>
  <path class="cls-8" d="M80,225.43a.71.71,0,0,1-.75-.72.75.75,0,1,1,.75.72Z"></path>
  <path class="cls-8" d="M80,222.94a.71.71,0,0,1-.75-.72.75.75,0,1,1,.75.72Z"></path>
  <path class="cls-8" d="M80,220.46a.71.71,0,0,1-.75-.72.75.75,0,1,1,.75.72Z"></path>
</svg>
